<?xml version="1.0" standalone="no"?>
<!DOCTYPE svg PUBLIC "-//W3C//DTD SVG 20010904//EN"
 "http://www.w3.org/TR/2001/REC-SVG-20010904/DTD/svg10.dtd">
<svg version="1.0" xmlns="http://www.w3.org/2000/svg"
 width="512.000000pt" height="512.000000pt" viewBox="0 0 512.000000 512.000000"
 preserveAspectRatio="xMidYMid meet">
<metadata>
Created by potrace 1.11, written by Peter Selinger 2001-2013
</metadata>
<g transform="translate(0.000000,512.000000) scale(0.100000,-0.100000)"
fill="#000000" stroke="none">
<path d="M2428 4905 c-2 -1 -39 -6 -83 -9 -186 -16 -357 -52 -550 -118 -113
-38 -137 -48 -292 -125 -69 -35 -130 -60 -136 -56 -5 3 -7 1 -4 -5 4 -5 -14
-22 -40 -38 -27 -15 -77 -48 -112 -73 -35 -25 -69 -45 -75 -43 -6 2 -8 1 -4
-3 4 -4 -26 -33 -65 -65 -83 -67 -210 -190 -282 -274 -27 -32 -56 -64 -62 -71
-34 -35 -204 -301 -243 -380 -25 -49 -49 -93 -53 -96 -5 -3 -8 -9 -7 -13 3
-12 -22 -66 -29 -62 -3 2 -7 -6 -7 -17 -2 -33 -46 -147 -56 -147 -5 0 -7 -4
-4 -8 3 -5 -2 -31 -10 -58 -9 -27 -18 -58 -20 -69 -7 -29 -13 -55 -23 -95 -5
-21 -13 -34 -21 -32 -10 2 -11 0 -2 -11 6 -7 9 -24 7 -38 -3 -13 -8 -37 -11
-54 -20 -101 -29 -225 -27 -410 1 -198 5 -253 29 -365 2 -8 5 -36 8 -61 2 -25
8 -54 13 -65 5 -10 9 -28 9 -39 -1 -11 2 -23 7 -26 4 -3 9 -20 10 -37 1 -18 6
-32 11 -32 4 0 6 -13 4 -29 -2 -17 -1 -28 3 -25 4 2 15 -20 24 -48 9 -29 23
-68 31 -86 8 -18 12 -37 8 -44 -4 -7 -3 -8 4 -4 10 6 13 -2 12 -29 -1 -3 6
-13 15 -22 9 -8 14 -21 11 -29 -3 -7 -1 -14 4 -16 5 -2 10 -10 12 -18 2 -8 9
-21 16 -29 7 -7 10 -21 7 -29 -3 -9 -3 -13 1 -9 8 7 15 -3 54 -80 13 -26 32
-57 41 -68 10 -11 19 -27 21 -35 2 -8 11 -23 20 -34 10 -11 23 -32 30 -47 7
-15 15 -26 19 -23 4 2 10 -5 14 -16 3 -11 12 -26 18 -32 38 -40 66 -81 62 -88
-3 -5 0 -12 6 -16 8 -5 10 -2 4 7 -4 8 12 -8 36 -36 24 -27 59 -65 77 -83 18
-18 29 -38 26 -44 -4 -6 -3 -8 4 -4 6 3 40 -23 76 -58 36 -35 66 -62 66 -59 0
3 7 0 15 -7 8 -7 12 -16 9 -21 -3 -5 -2 -9 3 -8 21 4 33 -2 33 -16 0 -8 6 -14
13 -12 6 1 11 -4 9 -11 -1 -8 1 -11 6 -8 5 3 19 -2 31 -11 19 -12 20 -17 10
-25 -11 -7 -9 -8 4 -4 21 7 79 -32 70 -47 -3 -6 -1 -7 5 -3 15 9 55 -18 44
-29 -4 -5 -1 -5 7 0 9 5 18 2 25 -7 6 -8 13 -15 16 -16 10 -1 65 -27 70 -33 3
-3 25 -16 50 -30 25 -13 48 -28 51 -32 3 -5 10 -8 15 -7 20 3 46 -9 39 -19 -4
-7 0 -8 11 -4 13 5 15 3 9 -7 -6 -10 -4 -12 7 -8 8 4 35 -3 59 -14 24 -11 53
-21 63 -24 11 -2 23 -9 28 -16 4 -7 8 -10 8 -6 0 3 45 -9 101 -28 55 -19 107
-34 115 -34 8 0 14 -6 14 -12 0 -10 2 -10 9 0 6 11 11 10 25 -3 12 -12 16 -13
16 -3 0 8 3 9 8 3 4 -5 12 -10 17 -10 9 -1 65 -10 120 -20 11 -2 20 -4 20 -5
0 -1 16 -3 35 -5 19 -2 62 -7 95 -10 33 -4 73 -8 88 -9 15 -1 33 -8 38 -16 9
-13 10 -13 6 1 -3 9 1 16 9 16 8 0 14 -3 14 -6 0 -3 35 -5 77 -4 43 1 78 3 78
3 0 1 35 3 77 4 42 1 80 5 84 9 4 4 17 -1 28 -10 20 -17 20 -17 7 0 -12 15
-10 17 20 18 19 0 44 2 57 5 16 3 21 0 16 -8 -4 -6 3 -4 16 5 19 13 27 14 39
4 9 -7 12 -8 8 -1 -4 7 5 14 26 19 68 14 93 19 115 19 12 1 22 4 22 7 0 3 26
12 58 19 68 16 63 15 84 24 9 4 22 9 30 10 7 1 23 8 36 14 12 7 22 10 22 6 0
-3 7 -1 15 6 8 6 18 9 24 6 5 -3 11 -3 13 2 4 10 140 67 155 66 7 -1 11 2 8 6
-5 8 54 37 68 32 4 -1 7 3 7 8 0 6 4 10 10 10 5 0 29 13 52 29 24 16 46 27 50
25 5 -3 8 -1 8 5 0 6 7 7 17 4 10 -4 14 -2 10 4 -4 6 8 20 25 31 24 16 35 18
40 9 5 -8 8 -6 8 5 0 19 33 41 45 30 5 -4 5 -2 2 4 -8 14 50 57 65 48 6 -4 8
-3 4 4 -8 13 44 51 64 45 12 -4 12 -3 1 5 -10 8 -8 13 10 25 12 9 27 13 32 10
6 -3 7 -1 4 4 -8 13 17 36 28 25 5 -4 5 -2 1 5 -8 14 27 36 39 25 5 -4 5 -1 1
5 -9 16 80 106 96 97 7 -4 8 -3 4 5 -10 15 13 43 27 34 5 -3 8 -2 4 3 -6 10
20 50 31 47 4 -2 7 0 7 5 0 4 11 19 24 32 12 14 30 36 39 50 24 36 83 114 91
120 4 3 11 12 14 20 4 8 16 29 27 45 11 17 24 40 30 53 6 14 15 20 22 16 7 -4
8 -3 4 4 -6 11 37 103 62 130 6 7 12 18 12 24 0 6 14 41 31 77 37 79 41 88 69
166 11 33 28 73 35 88 10 20 11 26 2 20 -6 -4 -4 6 7 21 10 16 13 25 6 21 -8
-5 -9 -2 -1 11 13 24 40 140 48 202 3 26 8 49 12 52 3 3 7 16 7 30 1 14 5 52
9 85 4 33 8 135 9 227 1 108 5 164 11 160 6 -3 5 1 -1 9 -7 8 -15 48 -18 89
-12 128 -25 219 -40 268 -3 9 -8 32 -11 51 -3 19 -8 37 -10 41 -2 3 -6 17 -9
31 -3 13 -9 39 -15 57 -5 17 -7 32 -3 32 4 0 2 4 -3 8 -9 6 -20 34 -40 102 -1
3 -7 18 -13 33 -7 16 -12 30 -12 32 0 5 -91 199 -101 215 -5 8 -12 22 -16 30
-3 8 -15 27 -25 42 -11 16 -16 32 -13 38 3 5 2 10 -4 10 -5 0 -20 17 -32 38
-24 38 -139 203 -149 212 -3 3 -32 37 -65 75 -117 137 -311 311 -435 391 -25
16 -47 31 -50 34 -9 10 -105 67 -180 108 -241 130 -525 221 -795 257 -16 3
-48 7 -70 10 -42 6 -371 15 -377 10z"/>
<path d="M4655 1451 c-3 -5 -2 -12 3 -15 5 -3 9 1 9 9 0 17 -3 19 -12 6z"/>
<path d="M535 1320 c3 -5 8 -10 11 -10 2 0 4 5 4 10 0 6 -5 10 -11 10 -5 0 -7
-4 -4 -10z"/>
<path d="M680 1100 c-12 -7 -10 -9 7 -7 12 0 19 5 17 9 -6 10 -6 10 -24 -2z"/>
<path d="M816 941 c-3 -5 2 -15 12 -22 15 -12 16 -12 5 2 -7 9 -10 19 -6 22 3
4 4 7 0 7 -3 0 -8 -4 -11 -9z"/>
<path d="M4255 901 c-3 -5 -2 -12 3 -15 5 -3 9 1 9 9 0 17 -3 19 -12 6z"/>
<path d="M4210 860 c0 -5 5 -10 11 -10 5 0 7 5 4 10 -3 6 -8 10 -11 10 -2 0
-4 -4 -4 -10z"/>
<path d="M935 820 c-3 -5 -1 -10 4 -10 6 0 11 5 11 10 0 6 -2 10 -4 10 -3 0
-8 -4 -11 -10z"/>
<path d="M4070 701 c0 -6 4 -13 10 -16 6 -3 7 1 4 9 -7 18 -14 21 -14 7z"/>
<path d="M1190 616 c0 -2 8 -10 18 -17 15 -13 16 -12 3 4 -13 16 -21 21 -21
13z"/>
<path d="M3890 585 c0 -7 30 -13 34 -7 3 4 -4 9 -15 9 -10 1 -19 0 -19 -2z"/>
<path d="M3827 559 c7 -7 15 -10 18 -7 3 3 -2 9 -12 12 -14 6 -15 5 -6 -5z"/>
<path d="M1370 499 c0 -5 5 -7 10 -4 6 3 10 8 10 11 0 2 -4 4 -10 4 -5 0 -10
-5 -10 -11z"/>
<path d="M3693 465 c0 -8 4 -12 9 -9 5 3 6 10 3 15 -9 13 -12 11 -12 -6z"/>
<path d="M1490 426 c0 -2 7 -7 16 -10 8 -3 12 -2 9 4 -6 10 -25 14 -25 6z"/>
<path d="M1573 385 c0 -8 4 -12 9 -9 5 3 6 10 3 15 -9 13 -12 11 -12 -6z"/>
<path d="M3516 378 c3 -4 11 -5 19 -1 21 7 19 12 -4 10 -11 0 -18 -5 -15 -9z"/>
<path d="M3436 362 c-3 -5 1 -9 9 -9 8 0 12 4 9 9 -3 4 -7 8 -9 8 -2 0 -6 -4
-9 -8z"/>
<path d="M1736 293 c-6 -14 -5 -15 5 -6 7 7 10 15 7 18 -3 3 -9 -2 -12 -12z"/>
<path d="M3015 220 c3 -5 8 -10 11 -10 2 0 4 5 4 10 0 6 -5 10 -11 10 -5 0 -7
-4 -4 -10z"/>
<path d="M3095 221 c-3 -5 -2 -12 3 -15 5 -3 9 1 9 9 0 17 -3 19 -12 6z"/>
<path d="M2655 191 c-3 -5 -2 -12 3 -15 5 -3 9 1 9 9 0 17 -3 19 -12 6z"/>
<path d="M2755 179 c-3 -4 2 -6 10 -5 21 3 28 13 10 13 -9 0 -18 -4 -20 -8z"/>
<path d="M2855 181 c-3 -5 -2 -12 3 -15 5 -3 9 1 9 9 0 17 -3 19 -12 6z"/>
<path d="M2550 159 c0 -5 5 -7 10 -4 6 3 10 8 10 11 0 2 -4 4 -10 4 -5 0 -10
-5 -10 -11z"/>
</g>
</svg>
